<?xml version="1.0" encoding="utf-8"?>
<!-- Generator: Adobe Illustrator 22.0.1, SVG Export Plug-In . SVG Version: 6.00 Build 0)  -->
<svg version="1.1" id="Layer_1" xmlns="http://www.w3.org/2000/svg" xmlns:xlink="http://www.w3.org/1999/xlink" x="0px" y="0px"
	 viewBox="0 0 1600 1200" enable-background="new 0 0 1600 1200" xml:space="preserve">
<g>
	<g>
		<path fill="#3C5982" d="M624.529,618.815c0,5.461,4.443,9.904,9.904,9.904c5.461,0,9.904-4.443,9.904-9.904
			c0-3.599-2.014-6.913-5.083-8.64v-48.159c3.069-1.727,5.083-5.041,5.083-8.64c0-5.461-4.443-9.904-9.904-9.904
			c-5.461,0-9.904,4.443-9.904,9.904c0,3.599,2.014,6.913,5.083,8.64v48.159C626.544,611.901,624.529,615.215,624.529,618.815z"/>
		<path fill="#2B8EE0" d="M647.119,605.862c0,5.461,4.443,9.904,9.904,9.904c5.461,0,9.904-4.443,9.904-9.904
			c0-3.599-2.014-6.913-5.083-8.64v-22.224c3.069-1.727,5.083-5.041,5.083-8.641c0-5.461-4.443-9.904-9.904-9.904
			c-5.461,0-9.904,4.443-9.904,9.904c0,3.599,2.014,6.913,5.083,8.64v22.224C649.133,598.949,647.119,602.263,647.119,605.862z"/>
		<path fill="#2B8EE0" d="M701.674,656.087l-25.339-33.186c1.397-1.623,2.701-3.326,3.904-5.094
			c4.482-6.592,7.557-14.248,8.893-22.144c2.848-16.829-2.207-34.36-13.524-46.896c-7.507-8.315-17.608-14.411-28.443-17.165
			c-4.361-1.108-8.897-1.67-13.483-1.67c-23.473,0-44.701,14.832-52.825,36.909l-1.483,4.036h10.065l0.755-1.892
			c7.143-17.964,24.214-29.571,43.488-29.571c11.098,0,22.294,4.204,30.717,11.535c8.736,7.602,14.317,18.103,15.716,29.569
			c0.229,1.885,0.346,3.793,0.346,5.674c0,24.464-18.366,44.505-42.721,46.616l-1.408,0.148c-0.904,0.053-1.792,0.08-2.651,0.08
			c-24.227,0-44.589-18.983-46.628-42.854h20.038v7.099c-3.85,2.142-5.901,6.673-4.772,11.12c0.939,3.706,4.097,6.632,7.857,7.281
			c2.909,0.503,5.869-0.29,8.11-2.177c2.244-1.889,3.531-4.651,3.531-7.577c0-3.6-2.014-6.914-5.083-8.641v-22.217
			c3.848-2.142,5.899-6.671,4.773-11.116c-0.939-3.707-4.096-6.634-7.855-7.284c-2.916-0.503-5.87,0.288-8.111,2.175
			c-2.245,1.889-3.533,4.651-3.533,7.578c0,3.599,2.014,6.913,5.083,8.64v5.476h-29.496l-0.136,2.851
			c-0.048,0.956-0.072,1.909-0.072,2.833c0,31.041,25.253,56.294,56.293,56.294c8.429,0,16.813-1.923,24.39-5.577l25.291,33.124
			L701.674,656.087z"/>
	</g>
	<g>
		<path fill="#2B8EE0" d="M727.718,593.52c-1.058,0.07-2.187,0.141-3.315,0.141h-13.121v15.589h-5.643v-49.378h18.764
			c12.344,0,19.469,6.066,19.469,16.577c0,8.183-3.95,13.685-11.074,16.013l11.568,16.789h-6.419L727.718,593.52z M724.402,588.229
			c8.958,0,14.038-3.95,14.038-11.639c0-7.477-5.079-11.286-14.038-11.286h-13.121v22.925H724.402z"/>
		<path fill="#2B8EE0" d="M787.882,592.814H757.55c0.987,7.266,6.278,11.85,13.473,11.85c4.585,0,8.606-1.622,11.498-4.655
			l3.034,3.245c-3.527,3.95-8.747,6.207-14.955,6.207c-10.934,0-18.481-7.689-18.481-18.764s7.618-18.764,18.411-18.764
			C782.521,571.864,788.447,580.188,787.882,592.814z M782.944,588.3c-0.352-7.125-5.149-11.639-12.415-11.639
			c-7.054,0-12.133,4.585-12.979,11.639H782.944z"/>
		<path fill="#2B8EE0" d="M826.323,577.437l-3.033,3.88c-2.822-2.68-6.561-4.303-11.076-4.303c-7.689,0-13.191,5.572-13.191,13.685
			s5.502,13.755,13.191,13.755c4.867,0,8.889-1.693,11.499-4.797l3.174,3.387c-3.316,4.021-8.466,6.419-14.884,6.419
			c-10.793,0-18.411-7.689-18.411-18.764s7.689-18.764,18.411-18.764C817.998,571.864,822.936,573.91,826.323,577.437z"/>
		<path fill="#2B8EE0" d="M837.251,609.25v-52.341h5.502v52.341H837.251z"/>
		<path fill="#2B8EE0" d="M888.745,609.25h-5.502v-8.394c-2.47,5.785-7.407,8.535-14.108,8.606c-8.677,0-13.896-5.502-13.896-14.461
			v-22.925h5.502v21.444c0,6.56,3.879,10.439,10.299,10.439c7.689-0.141,12.203-5.713,12.203-13.614v-18.27h5.502V609.25z"/>
		<path fill="#2B8EE0" d="M921.328,606.711c-2.611,1.763-5.432,2.751-8.395,2.822c-5.432,0-9.452-3.245-9.452-10.581v-21.233h-5.361
			v-4.445h5.361v-9.805h5.432v9.805l11.78-0.07v4.515h-11.78v20.245c0,4.515,1.763,6.207,4.938,6.207
			c1.905,0,3.88-0.635,5.926-1.904L921.328,606.711z"/>
		<path fill="#2B8EE0" d="M952.715,603.536c-2.962,4.021-7.689,5.996-13.614,5.996c-7.689,0-12.627-4.938-12.627-11.357
			c0-6.49,5.15-10.581,13.896-10.652h12.203v-2.187c0-5.432-3.385-8.677-9.946-8.677c-4.091,0-7.9,1.552-11.78,4.233l-2.327-4.021
			c4.796-3.174,8.817-5.008,15.166-5.008c9.171,0,14.248,4.867,14.319,12.838l0.071,24.548h-5.361V603.536z M952.644,596.412v-4.444
			h-11.568c-6.207,0-9.452,1.904-9.452,5.996c0,4.091,3.315,6.772,8.535,6.772C946.437,604.736,951.233,601.561,952.644,596.412z"/>
		<path fill="#3C5982" d="M990.38,569.325v39.926h-11.146v-39.926h-15.024v-9.452h41.265v9.452H990.38z"/>
		<path fill="#3C5982" d="M1011.466,609.25v-49.378h11.145v49.378H1011.466z"/>
	</g>
</g>
</svg>
